<svg id="Camada_1" data-name="Camada 1" xmlns="http://www.w3.org/2000/svg" viewBox="0 0 936.21 603.72">
  <defs>
    <style>
      .cls-1 {
        fill: #3f3d56;
      }

      .cls-2 {
        fill: #6c63ff;
      }

      .cls-3 {
        fill: #e5e5e5;
      }

      .cls-4 {
        fill: #fff;
      }

      .cls-5 {
        fill: #f1f1f1;
      }

      .cls-6 {
        fill: #ffb7b7;
      }

      .cls-7 {
        fill: #2f2e41;
      }

      .cls-8 {
        fill: #cbcbcb;
      }
    </style>
  </defs>
  <path class="cls-1" d="M69.4,557.74c-12.67-3.5-18.07,15.74-5.43,19.35S82,561.35,69.4,557.74Z"/>
  <path class="cls-1" d="M139.66,582.5c-12.67-3.5-18.08,15.74-5.44,19.35S152.29,586.11,139.66,582.5Z"/>
  <path class="cls-1" d="M168.09,379.57l-.2-.06-32.63,88.61L131,466.91l32.87-89.24h0a6,6,0,0,1,5.05-5.64c16.32-2.58,22.94,11.9,22.94,11.9l-.07.1-33.36,90.59-4.31-1.21,32.39-87.92C176.6,375.73,168.09,379.57,168.09,379.57Z"/>
  <path class="cls-2" d="M130.36,587.48c-19.23-.29-43-10.69-59.24-18.48A20.22,20.22,0,0,1,60.4,545.26l21-74.78A25.43,25.43,0,0,1,94,454.91a24.34,24.34,0,0,1,19.41-1.5c.75.34,21.17,6,34.69,9.84,8,2.22,13.69,3.83,14.08,4s14.6,5,12.07,22.27c-1.95,13.26-16.65,62.11-22.88,82.5a21.85,21.85,0,0,1-20.73,15.5Z"/>
  <polygon class="cls-1" points="70.65 556.66 97.9 464.42 161.99 482.53 162.37 481.18 96.95 462.69 96.75 463.35 69.3 556.26 70.65 556.66"/>
  <rect id="f269d402-b375-49c3-b6cb-02ffddd7443c" class="cls-3" x="374.84" y="15.39" width="561.37" height="266.38"/>
  <rect id="a67a6d8d-d730-43ea-8e97-5097e31b093a" class="cls-4" x="391.56" y="38.23" width="529.26" height="222.25"/>
  <rect id="f3270c98-3f14-4116-bb63-3583a595f2eb" class="cls-2" x="374.6" width="561.37" height="23.85"/>
  <circle id="aeafa2cf-3960-41d9-9a79-114ebb97b926" class="cls-4" cx="392.32" cy="11.88" r="4.42"/>
  <circle id="e013fb1c-e2d9-4cba-be1c-2b59a1ea1400" class="cls-4" cx="409.1" cy="11.88" r="4.42"/>
  <circle id="a6347b87-b687-4c13-8a45-efd6144b746c" class="cls-4" cx="425.88" cy="11.88" r="4.42"/>
  <path class="cls-5" d="M641.39,146.27a84,84,0,0,1-5.29,29.46,81.36,81.36,0,0,1-5.85,12.47,84.38,84.38,0,0,1-146.42,0c-.75-1.3-1.46-2.61-2.13-3.95a84.36,84.36,0,1,1,159.69-38Z"/>
  <circle class="cls-2" cx="561.42" cy="144.39" r="16.13"/>
  <path class="cls-4" d="M481.7,184.25c7.11-7.68,16.6-19.87,25.51-11.06,4.47,4.16,11.47,14.45,18.17,7.72l52.31-52.31a10.39,10.39,0,0,1,14.68.1l.17.17,43.56,46.86a81.36,81.36,0,0,1-5.85,12.47H483.83Z"/>
  <path id="f2fac30d-751a-4ad9-9a70-d842b6b29c55-40" class="cls-2" d="M813.66,129.75a2.18,2.18,0,1,0,0,4.35h22.86a2.18,2.18,0,1,0,0-4.35Z"/>
  <path id="bff7eaac-8fd0-4862-b46f-daee6d731cf9-41" class="cls-3" d="M710.63,97.74a2.18,2.18,0,1,0,0,4.36h126.9a2.18,2.18,0,1,0,0-4.36Z"/>
  <path id="a9efcef9-bf26-45a4-a9d0-ef067b9cf824-42" class="cls-3" d="M710.63,113.74a2.18,2.18,0,1,0,0,4.36H837.52a2.18,2.18,0,1,0,0-4.36Z"/>
  <path id="b479989b-99d4-4e70-bae9-0a98ba95b9e4-43" class="cls-2" d="M813.66,232.44a2.18,2.18,0,1,0,0,4.36h22.86a2.18,2.18,0,0,0,0-4.36H813.66Z"/>
  <path id="b7ed51b3-7b2d-4a2d-a8c2-cf48ecd6b6d7-44" class="cls-3" d="M710.63,200.43a2.18,2.18,0,1,0,0,4.36H837.52a2.18,2.18,0,1,0,0-4.36H710.63Z"/>
  <path id="e2a2d7bb-cfae-451b-8ad9-ee9abc29fc00-45" class="cls-3" d="M710.63,216.44a2.18,2.18,0,1,0,0,4.36H837.52a2.18,2.18,0,1,0,0-4.36H710.63Z"/>
  <path class="cls-3" d="M786.8,73.32h-6.87L774,64.87h-2.5l3,8.45h-6.73L765,70.56h-2.33l1.16,5.1-1.16,4.47H765l2.76-2.76.05-.07h6.75l-3,8.67H774L780,77.48l.07-.18h6.78a2,2,0,1,0,0-4Z"/>
  <path class="cls-3" d="M781,183.61H770.12a3.66,3.66,0,0,1-3.67-3.66v-9.88a3,3,0,0,1,2.2-2.9,26.89,26.89,0,0,1,13.77,0,3,3,0,0,1,2.22,2.91V180A3.66,3.66,0,0,1,781,183.61Z"/>
  <rect class="cls-4" x="768.54" y="170.43" width="14.02" height="5.26"/>
  <circle class="cls-4" cx="770.29" cy="179.19" r="1.75"/>
  <circle class="cls-4" cx="780.8" cy="179.19" r="1.75"/>
  <path class="cls-3" d="M783.91,188.62H767l4-3.34h8.92Zm-14.29-1h11.66l-1.71-1.43h-8.23Z"/>
  <path class="cls-3" d="M784.79,184.28H766.12a1,1,0,0,1,0-2h18.67a1,1,0,0,1,0,2Z"/>
  <path class="cls-6" d="M184.07,387.06a9.14,9.14,0,0,0-5.67-12.81l-1.76-32.43-13.56,10,3.74,29.25a9.19,9.19,0,0,0,17.25,5.95Z"/>
  <path class="cls-6" d="M289.15,393.09a9.15,9.15,0,0,1,2.24-12.73,8.86,8.86,0,0,1,1.4-.8l-3.26-32.31,15,7.83.8,29.48a9.19,9.19,0,0,1-16.13,8.53Z"/>
  <polygon class="cls-6" points="209.38 591.72 220.06 591.71 225.14 550.52 209.37 550.52 209.38 591.72"/>
  <path class="cls-7" d="M206.65,588.23h21a13.4,13.4,0,0,1,13.4,13.4v.44H206.65Z"/>
  <polygon class="cls-6" points="263.32 585.3 273.76 587.54 287.36 548.32 271.95 545.02 263.32 585.3"/>
  <path class="cls-7" d="M261.39,581.32,282,585.73h0a13.4,13.4,0,0,1,10.3,15.91l-.09.43-33.67-7.22Z"/>
  <path class="cls-7" d="M190.12,356s-11.37,35.12-.24,74.84l11.33,47.57L204,583.62,227,576.26,236.3,415.7l43,73.06-22.65,87.5,26.05.85,28.13-94.63-24.73-88.3-4.53-21.52Z"/>
  <path class="cls-8" d="M283,239.32l-22.81-13L220.7,224l-27.38,14.37,11.13,76.33S183.23,345.19,191,365.48c9.55,25,93,38.11,91.42,13.67-2.58-38.57-6.56-35.91-9.48-54.82C269.7,303.58,292.11,277,292.11,277Z"/>
  <path class="cls-8" d="M201.76,245.94l-2.54-11s-10.85,1.4-18.37,22.4S160,322.59,160,322.59l.7,16.09s-5.16,5.95-1.6,8.67-6.42,6.4-1.37,10.26A14.49,14.49,0,0,1,163,372.44l15.52-4.79-1.14-25.32,6.14-20,16.43-50Z"/>
  <path class="cls-8" d="M274.63,247.82l3.45-10.69s6.37-2.61,11.07,12.07S296.07,301,296.07,301l9.13,44.27s3.41,5.64,1.6,7.26,8,3.89,2.28,6.88.49-.64-1.64,6.18c-1.39,4.49,0,6.84,0,6.84l-17.57-3.53-4.79-22.7L274.25,304Z"/>
  <circle class="cls-7" cx="240.52" cy="184.14" r="30.3"/>
  <path class="cls-7" d="M237.41,165.29a63.37,63.37,0,0,0-23.12-14.95c-5.58-2.07-11.66-3.35-17.51-2.17s-11.36,5.21-13,10.94c-1.33,4.69,0,9.74,2.11,14.15s4.83,8.5,6.5,13.08a29.83,29.83,0,0,1-30,40c5.73.77,11,3.47,16.64,4.91s12.23,1.33,16.39-2.68c4.42-4.26,4.5-11.17,4.29-17.29q-.48-13.65-.95-27.31c-.16-4.64-.3-9.43,1.37-13.76s5.66-8.13,10.3-8.09c3.52,0,6.64,2.16,9.46,4.27s5.81,4.34,9.32,4.65,7.51-2.28,7.24-5.79Z"/>
  <circle class="cls-6" cx="243.57" cy="195.28" r="22.3"/>
  <path class="cls-7" d="M274.93,193.59h-32.2L242.4,189l-1.65,4.62h-5l-.66-9.16-3.27,9.16h-9.59v-.45a24.09,24.09,0,0,1,24.06-24.07h4.54a24.09,24.09,0,0,1,24.06,24.07Z"/>
  <path class="cls-7" d="M227.13,210.21l-11.76-11.77-2-26.06h26l-.65.64C229.76,182,220.11,195.05,227.13,210.21Z"/>
  <path class="cls-8" d="M382,603.72H1a1,1,0,0,1,0-2H382a1,1,0,0,1,0,2Z"/>
</svg>
